<?xml version="1.0" encoding="UTF-8"?>
<svg width="64px" height="64px" viewBox="0 0 64 64" version="1.1" xmlns="http://www.w3.org/2000/svg" xmlns:xlink="http://www.w3.org/1999/xlink">
    <title>Black icon</title>
    <g id="页面-1" stroke="none" stroke-width="1" fill="none" fill-rule="evenodd">
        <g id="Logo-+-color" transform="translate(-324.000000, -549.000000)" fill="#000000">
            <g id="Black-icon" transform="translate(324.000000, 549.000000)">
                <path d="M32,0 C49.673112,0 64,14.326888 64,32 C64,49.673112 49.673112,64 32,64 C14.326888,64 0,49.673112 0,32 C0,14.326888 14.326888,0 32,0 Z M32,26.6666667 L31.999,31.999 L32,32 L32,32 L32.2198396,32.0044486 C34.9905048,32.1167831 37.2165502,34.3428286 37.3288848,37.1134937 L37.3333333,37.3333333 C37.3333333,40.278852 34.9455187,42.6666667 32,42.6666667 C29.0544813,42.6666667 26.6666667,40.278852 26.6666667,37.3333333 L26.6666667,37.3333333 L21.3333333,37.3333333 L21.3333333,50.6666667 L26.6666667,50.6666667 L26.6666162,46.5729607 C28.2355522,47.4805527 30.0571144,48 32,48 C37.8910373,48 42.6666667,43.2243707 42.6666667,37.3333333 C42.6666667,31.442296 37.8910373,26.6666667 32,26.6666667 L32,26.6666667 Z M42.6666667,13.3333333 L37.3333333,13.3333333 L37.3333838,17.4270393 C35.7644478,16.5194473 33.9428856,16 32,16 C26.1089627,16 21.3333333,20.7756293 21.3333333,26.6666667 C21.3333333,32.557704 26.1089627,37.3333333 32,37.3333333 L32,37.3333333 L32,32 L32,32 L31.999,31.999 L31.7801604,31.9955514 C29.0094952,31.8832169 26.7834498,29.6571714 26.6711152,26.8865063 L26.6666667,26.6666667 C26.6666667,23.721148 29.0544813,21.3333333 32,21.3333333 C34.8718807,21.3333333 37.213594,23.6032497 37.3288848,26.4468271 L37.3288848,26.4468271 L37.3333333,26.6666667 L42.6666667,26.6666667 L42.6666667,13.3333333 Z" id="形状结合"></path>
            </g>
        </g>
    </g>
</svg>