<?xml version="1.0" encoding="UTF-8"?>
<svg width="336px" height="96px" viewBox="0 0 336 96" version="1.1" xmlns="http://www.w3.org/2000/svg" xmlns:xlink="http://www.w3.org/1999/xlink">
    <title>Sister in Law Yellow</title>
    <g id="Sister-in-Law-Yellow" stroke="none" stroke-width="1" fill="none" fill-rule="evenodd">
        <g id="编组" transform="translate(16.000000, 16.000000)">
            <g id="Yellow-icon">
                <circle id="椭圆形备份" fill="#FFF704" cx="32" cy="32" r="32"></circle>
                <path d="M32,42.6666667 C34.9455187,42.6666667 37.3333333,40.278852 37.3333333,37.3333333 C37.3333333,34.3878147 34.9455187,32 32,32 L32,26.6666667 C37.8910373,26.6666667 42.6666667,31.442296 42.6666667,37.3333333 C42.6666667,43.2243707 37.8910373,48 32,48 C30.0571144,48 28.2355522,47.4805527 26.6666162,46.5729607 L26.6666667,50.6666667 L21.3333333,50.6666667 L21.3333333,37.3333333 L26.6666667,37.3333333 C26.6666667,40.278852 29.0544813,42.6666667 32,42.6666667 Z M42.6666667,13.3333333 L42.6666667,26.6666667 L37.3333333,26.6666667 L37.3323333,26.6223333 L37.3288848,26.4468271 C37.213594,23.6032497 34.8718807,21.3333333 32,21.3333333 C29.0544813,21.3333333 26.6666667,23.721148 26.6666667,26.6666667 C26.6666667,29.6121853 29.0544813,32 32,32 L32,37.3333333 C26.1089627,37.3333333 21.3333333,32.557704 21.3333333,26.6666667 C21.3333333,20.7756293 26.1089627,16 32,16 C33.9428856,16 35.7644478,16.5194473 37.3333838,17.4270393 L37.3333333,13.3333333 L42.6666667,13.3333333 Z" id="形状结合备份-2" fill="#000000" fill-rule="nonzero"></path>
            </g>
            <path d="M89.6170022,46 C93.0370836,46 95.588785,45.3514116 97.2721064,44.0542348 C98.9554277,42.7570579 99.7970884,40.9717682 99.7970884,38.6983655 C99.7970884,37.4680535 99.5632938,36.3647845 99.0957045,35.3885587 C98.6281153,34.4123328 97.813174,33.5564636 96.6508807,32.820951 C95.4885873,32.0854383 93.8520249,31.4502229 91.7411934,30.9153046 C90.1113108,30.48737 88.8354601,30.0995542 87.9136413,29.7518574 C86.9918224,29.4041605 86.3438773,28.9895988 85.9698059,28.5081724 C85.5957345,28.0267459 85.4086988,27.3982169 85.4086988,26.6225854 C85.4086988,25.2852897 85.9430865,24.3625557 87.011862,23.8543834 C88.0806374,23.346211 89.5769231,23.0921248 91.5007189,23.0921248 C93.9589025,23.0921248 96.2033309,23.4799406 98.2340043,24.2555721 L98.2340043,24.2555721 L98.2340043,20.4041605 C97.4858615,20.1367013 96.4504853,19.8959881 95.1278756,19.6820208 C93.805266,19.4680535 92.3958184,19.3610698 90.8995327,19.3610698 C87.6130482,19.3610698 85.1415049,20.0029718 83.4849029,21.2867756 C81.828301,22.5705795 81,24.3491828 81,26.6225854 C81,28.5750371 81.5611071,30.1062407 82.6833214,31.2161961 C83.8055356,32.3261516 85.7560508,33.2421991 88.534867,33.9643388 C90.2716271,34.3922734 91.6343158,34.8001486 92.6229331,35.1879643 C93.6115504,35.5757801 94.3196142,36.0371471 94.7471244,36.5720654 C95.1746346,37.1069837 95.3883896,37.8157504 95.3883896,38.6983655 C95.3883896,40.1426449 94.8740415,41.1054978 93.8453451,41.5869242 C92.8166487,42.0683507 91.2736041,42.3090639 89.2162114,42.3090639 C87.9069614,42.3090639 86.5910316,42.1753343 85.268422,41.9078752 C83.9458124,41.640416 82.7100407,41.2927192 81.5611071,40.8647845 L81.5611071,40.8647845 L81.5611071,44.7161961 C83.5917805,45.5720654 86.2770788,46 89.6170022,46 Z M110.418045,22.6106984 L110.418045,19 L105.648634,19 L105.648634,22.6106984 L110.418045,22.6106984 Z M110.377965,45.5988113 L110.377965,26.5824666 L103.524443,26.5824666 L103.123652,29.9123328 L106.009346,29.9123328 L106.009346,45.5988113 L110.377965,45.5988113 Z M121.800503,46 C124.392284,46 126.369518,45.538633 127.732207,44.615899 C129.094896,43.6931649 129.77624,42.2956909 129.77624,40.423477 C129.77624,39.3001486 129.582525,38.384101 129.195093,37.6753343 C128.807662,36.9665676 128.173077,36.3580981 127.291337,35.8499257 C126.409597,35.3417533 125.220585,34.8603269 123.724299,34.4056464 C122.094416,33.8707281 120.912084,33.4494799 120.177301,33.1419019 C119.442517,32.8343239 119.075126,32.3060921 119.075126,31.5572065 C119.075126,30.8350669 119.429158,30.3536404 120.137221,30.1129272 C120.845285,29.872214 121.894021,29.7518574 123.283429,29.7518574 C124.058291,29.7518574 124.893272,29.8320951 125.788372,29.9925706 C126.683471,30.1530461 127.505092,30.3803863 128.253235,30.6745914 L128.253235,30.6745914 L128.253235,27.0237741 C127.558531,26.7830609 126.71687,26.5824666 125.728253,26.4219911 C124.739636,26.2615156 123.69758,26.1812779 122.602085,26.1812779 C119.823269,26.1812779 117.805955,26.6560178 116.550144,27.6054978 C115.294333,28.5549777 114.666427,29.8989599 114.666427,31.6374443 C114.666427,32.7607727 114.893542,33.6701337 115.347771,34.3655275 C115.802001,35.0609212 116.443266,35.6292719 117.271567,36.0705795 C118.099868,36.5118871 119.075126,36.9197623 120.19734,37.2942051 C121.372993,37.6686478 122.341571,37.9895988 123.103073,38.2570579 C123.864576,38.5245171 124.439043,38.8187221 124.826474,39.1396731 C125.213905,39.4606241 125.40762,39.9019316 125.40762,40.4635958 C125.40762,41.2392273 125.086988,41.7607727 124.445723,42.0282318 C123.804457,42.2956909 122.735682,42.4294205 121.239396,42.4294205 C120.250779,42.4294205 119.208723,42.3358098 118.113228,42.1485884 C117.017733,41.961367 116.015756,41.6939079 115.107297,41.346211 L115.107297,41.346211 L115.107297,45.0371471 C115.882159,45.3046062 116.864097,45.5319465 118.053109,45.7191679 C119.242122,45.9063893 120.491253,46 121.800503,46 Z M141.319015,46 C142.815301,46 144.084472,45.7860327 145.126528,45.3580981 L145.126528,45.3580981 L145.126528,42.268945 C144.324946,42.5364042 143.563444,42.6701337 142.84202,42.6701337 C141.693087,42.6701337 140.864786,42.4494799 140.357117,42.0081724 C139.849449,41.5668648 139.595615,40.7979198 139.595615,39.7013373 L139.595615,39.7013373 L139.595615,29.9925706 L144.365025,29.9925706 L144.645579,26.5824666 L139.595615,26.5824666 L139.595615,20.8855869 L135.267074,22.2095097 L135.267074,26.5824666 L132.461538,26.5824666 L132.461538,29.9925706 L135.267074,29.9925706 L135.267074,39.9420505 C135.267074,41.8142645 135.768063,43.2919762 136.77004,44.3751857 C137.772017,45.4583952 139.288342,46 141.319015,46 Z M158.07207,46 C159.327882,46 160.510214,45.9063893 161.619069,45.7191679 C162.727924,45.5319465 163.709861,45.2511144 164.564881,44.8766716 L164.564881,44.8766716 L164.564881,41.667162 C163.816739,41.961367 162.934999,42.2020802 161.919662,42.3893016 C160.904325,42.576523 159.915708,42.6701337 158.95381,42.6701337 C156.655943,42.6701337 154.945902,42.3224368 153.823688,41.6270431 C152.701474,40.9316493 152.033489,39.6612184 151.819734,37.8157504 L151.819734,37.8157504 L165.727175,37.8157504 L165.727175,34.2852897 C165.727175,31.9049034 164.999071,29.9591382 163.542865,28.4479941 C162.086658,26.9368499 159.915708,26.1812779 157.030014,26.1812779 C153.877127,26.1812779 151.525821,27.063893 149.976096,28.8291233 C148.426372,30.5943536 147.65151,33.0014859 147.65151,36.0505201 C147.65151,39.4205052 148.559969,41.9212481 150.376887,43.5527489 C152.193805,45.1842496 154.758867,46 158.07207,46 Z M161.879583,34.9673105 L151.819734,34.9673105 C151.819734,33.0683507 152.200485,31.6775632 152.961988,30.794948 C153.72349,29.9123328 155.119578,29.4710253 157.150252,29.4710253 C158.860292,29.4710253 160.076024,29.8387816 160.797448,30.5742942 C161.518871,31.3098068 161.879583,32.332838 161.879583,33.6433878 L161.879583,33.6433878 L161.879583,34.9673105 Z M174.344177,45.5988113 L174.344177,31.8781575 C174.878565,31.5572065 175.53319,31.2429421 176.308052,30.935364 C177.082914,30.627786 177.904535,30.3469539 178.772915,30.0928678 C179.641295,29.8387816 180.449557,29.6448737 181.197699,29.5111441 L181.197699,29.5111441 L181.197699,26.1812779 C179.968608,26.3684993 178.726156,26.7028232 177.470345,27.1842496 C176.214534,27.6656761 175.132399,28.2005944 174.22394,28.7890045 L174.22394,28.7890045 L173.983465,26.5824666 L169.975557,26.5824666 L169.975557,45.5988113 L174.344177,45.5988113 Z M197.950755,45.5988113 L197.950755,19.7622585 L193.582135,19.7622585 L193.582135,45.5988113 L197.950755,45.5988113 Z M207.369339,45.5988113 L207.369339,31.6775632 C208.010604,31.0356612 208.805506,30.5141159 209.754044,30.1129272 C210.702582,29.7117385 211.67116,29.5111441 212.659777,29.5111441 C214.316379,29.5111441 215.445273,29.8053492 216.046459,30.3937593 C216.647646,30.9821694 216.948239,32.0118871 216.948239,33.4829123 L216.948239,33.4829123 L216.948239,45.5988113 L221.276779,45.5988113 L221.276779,33.282318 C221.276779,30.8484398 220.715672,29.0564636 219.593458,27.9063893 C218.471244,26.756315 216.681045,26.1812779 214.222861,26.1812779 C212.780014,26.1812779 211.464085,26.4153046 210.275072,26.8833581 C209.086059,27.3514116 208.064043,27.9197623 207.209022,28.5884101 L207.209022,28.5884101 L207.008627,26.5824666 L203.000719,26.5824666 L203.000719,45.5988113 L207.369339,45.5988113 Z M252.979331,45.5988113 L252.979331,42.2288262 L239.753235,42.2288262 L239.753235,19.7622585 L235.384615,19.7622585 L235.384615,45.5988113 L252.979331,45.5988113 Z M262.357836,46 C264.067877,46 265.490684,45.7994056 266.626258,45.3982169 C267.761832,44.9970282 268.71705,44.4219911 269.491912,43.6731055 L269.491912,43.6731055 L269.772466,45.5988113 L273.49982,45.5988113 L273.49982,33.3625557 C273.49982,30.8216939 272.771717,28.9895988 271.31551,27.8662704 C269.859304,26.7429421 267.741792,26.1812779 264.962976,26.1812779 C263.546849,26.1812779 262.224239,26.2882615 260.995147,26.5022288 C259.766056,26.7161961 258.724,26.9970282 257.868979,27.3447251 L257.868979,27.3447251 L257.868979,30.5943536 C259.819494,29.9257058 261.916966,29.5913819 264.161395,29.5913819 C265.577522,29.5913819 266.652977,29.7117385 267.387761,29.9524517 C268.122544,30.1931649 268.630212,30.5809807 268.910766,31.115899 C269.191319,31.6508172 269.331596,32.3729569 269.331596,33.282318 L269.331596,33.282318 L269.331596,34.1248143 L263.239576,34.1248143 C260.647795,34.1248143 258.730679,34.679792 257.488228,35.7897474 C256.245776,36.8997028 255.624551,38.3640416 255.624551,40.1827637 C255.624551,41.4665676 255.931824,42.5430906 256.54637,43.4123328 C257.160915,44.281575 257.982537,44.9301634 259.011233,45.3580981 C260.039929,45.7860327 261.155464,46 262.357836,46 Z M263.520129,42.8707281 C262.291038,42.8707281 261.342499,42.6567608 260.674515,42.2288262 C260.00653,41.8008915 259.672538,41.0921248 259.672538,40.102526 C259.672538,39.0861813 259.959771,38.3306092 260.534238,37.8358098 C261.108705,37.3410104 262.037203,37.0936107 263.319734,37.0936107 L263.319734,37.0936107 L269.331596,37.0936107 L269.331596,40.423477 C268.71705,41.1723626 267.922148,41.7674591 266.946891,42.2087667 C265.971633,42.6500743 264.829379,42.8707281 263.520129,42.8707281 Z M286.725917,45.5988113 L290.854062,33.1619614 L294.902049,45.5988113 L299.030194,45.5988113 L304,26.5824666 L299.671459,26.5824666 L296.384975,40.423477 L292.25683,26.5824666 L288.930266,26.5824666 L288.930266,28.9093611 L285.202912,40.423477 L281.916427,26.5824666 L277.547807,26.5824666 L282.557692,45.5988113 L286.725917,45.5988113 Z" id="SisterInLaw" fill="#000000" fill-rule="nonzero"></path>
        </g>
    </g>
</svg>