<?xml version="1.0" encoding="UTF-8"?>
<svg width="64px" height="64px" viewBox="0 0 64 64" version="1.1" xmlns="http://www.w3.org/2000/svg" xmlns:xlink="http://www.w3.org/1999/xlink">
    <title>Yellow icon</title>
    <g id="页面-1" stroke="none" stroke-width="1" fill="none" fill-rule="evenodd">
        <g id="Logo" transform="translate(-612.000000, -549.000000)">
            <g id="Yellow-icon" transform="translate(612.000000, 549.000000)">
                <circle id="椭圆形备份" fill="#FFF704" cx="32" cy="32" r="32"></circle>
                <path d="M32,42.6666667 C34.9455187,42.6666667 37.3333333,40.278852 37.3333333,37.3333333 C37.3333333,34.3878147 34.9455187,32 32,32 L32,26.6666667 C37.8910373,26.6666667 42.6666667,31.442296 42.6666667,37.3333333 C42.6666667,43.2243707 37.8910373,48 32,48 C30.0571144,48 28.2355522,47.4805527 26.6666162,46.5729607 L26.6666667,50.6666667 L21.3333333,50.6666667 L21.3333333,37.3333333 L26.6666667,37.3333333 C26.6666667,40.278852 29.0544813,42.6666667 32,42.6666667 Z M42.6666667,13.3333333 L42.6666667,26.6666667 L37.3333333,26.6666667 C37.3333333,23.721148 34.9455187,21.3333333 32,21.3333333 C29.0544813,21.3333333 26.6666667,23.721148 26.6666667,26.6666667 C26.6666667,29.6121853 29.0544813,32 32,32 L32,37.3333333 C26.1089627,37.3333333 21.3333333,32.557704 21.3333333,26.6666667 C21.3333333,20.7756293 26.1089627,16 32,16 C33.9428856,16 35.7644478,16.5194473 37.3333838,17.4270393 L37.3333333,13.3333333 L42.6666667,13.3333333 Z" id="形状结合备份-2" fill="#000000" fill-rule="nonzero"></path>
            </g>
        </g>
    </g>
</svg>